<?xml version="1.0" encoding="UTF-8"?>
<svg id="Calque_4" data-name="Calque 4" xmlns="http://www.w3.org/2000/svg" xmlns:xlink="http://www.w3.org/1999/xlink" viewBox="0 0 1214.58 1214.58">
  <defs>
    <style>
      .cls-1 {
        fill: url(#Dégradé_sans_nom_13);
      }

      .cls-1, .cls-2 {
        stroke-width: 0px;
      }

      .cls-2 {
        fill: #fff;
      }
    </style>
    <linearGradient id="Dégradé_sans_nom_13" data-name="Dégradé sans nom 13" x1="927.94" y1="895.88" x2="330.43" y2="298.38" gradientUnits="userSpaceOnUse">
      <stop offset="0" stop-color="#8973ec"/>
      <stop offset=".69" stop-color="#7b7bec"/>
      <stop offset="1" stop-color="#7380ec"/>
    </linearGradient>
  </defs>
  <g id="visage">
    <path class="cls-1" d="M245.45,410.13c27.76-45.07,59.24-72.16,70.71-81.55,47.12-38.55,92.56-53.02,103.23-56.26,34.3-10.4,62.3-11.7,99.61-13.42,24.26-1.12,17.26.69,84.65.52,28.03-.07,48.8-.44,85.16,0,39.96.48,47.9,1.32,53.68,2.06,7.07.91,35.51,4.85,70.71,18.58,41.43,16.16,69.46,37.01,78.97,44.39,8.4,6.52,47.58,37.67,80,93.42,11.66,20.04,34.26,59.81,41.84,117.16.99,7.52,5.48,43.72-2.06,90.32,0,0-13.44,83.03-56.77,136.77-.64.79-6.69,8.24-14.84,17.66-4.94,5.71-7.95,9.03-10.22,11.49-2.94,3.18-6.25,6.75-10.9,11.29-4.83,4.71-7.24,7.07-9.62,8.92-3.94,3.07-5.61,3.73-7.58,6.37-2.57,3.44-3.26,7.05-3.61,9.29-2.15,13.55-1.04,34.24-1.03,46.45,0,11.46-.96,8.7-1.03,21.68-.1,16.99-.15,25.49,1.03,35.61.69,5.95,1.63,11.52-.52,18.58-1.33,4.37-2.56,8.42-6.19,10.84-2.5,1.67-4.66,1.57-26.84-1.55-3.94-.55-6.38-.9-9.81-1.55-6.18-1.16-11.13-2.45-13.42-3.1-13-3.67-25.1-10.57-27.35-11.87-12.4-7.16-20.22-14.21-32.52-25.29-12.57-11.33-15.18-15.3-27.35-24.77-6.99-5.43-12.53-9.11-19.1-12.39-3.73-1.86-10.03-4.72-19.1-7.23-9.06-2.5-21.37-4.79-53.68-4.65-16.64.07-16.74.7-39.23,1.03-15.52.23-24.75.08-37.16,0-26.58-.16-31.25.28-66.58.52-50.19.34-75.55.47-88.77-1.55-33.55-5.12-56.5-14.89-61.42-17.03-26.56-11.55-44.11-25.25-55.23-34.06-13.96-11.06-42.76-35.97-68.13-76.39-11.88-18.93-33.5-58-42.84-112.52-5.1-29.77-8.27-74.27,4.13-125.42,2.64-10.9,12.53-49.1,39.19-92.39Z"/>
  </g>
  <path id="Oeil_Gauche" data-name="Oeil Gauche" class="cls-2" d="M387.42,525.74c1.96-3.08,8.14-12.18,19.61-19.61,18.92-12.25,38.22-10.86,44.39-10.32,7.03.61,20.15,1.92,33.03,11.35,12.46,9.13,17.68,20.7,20.13,26.32,2.94,6.74,9.3,24.26,3.81,45.59-1.39,5.4-6.38,23.64-23.94,36.99-24.15,18.35-52.06,12.23-55.74,11.35-3.4-.81-33.36-8.46-46.45-38.71-9.79-22.61-5.27-46.58,5.16-62.97Z"/>
  <path id="Oeil_droit" data-name="Oeil droit" class="cls-2" d="M709.99,525.74c1.96-3.08,8.14-12.18,19.61-19.61,18.92-12.25,38.22-10.86,44.39-10.32,7.03.61,20.15,1.92,33.03,11.35,12.46,9.13,17.68,20.7,20.13,26.32,2.94,6.74,9.3,24.26,3.81,45.59-1.39,5.4-6.38,23.64-23.94,36.99-24.15,18.35-52.06,12.23-55.74,11.35-3.4-.81-33.36-8.46-46.45-38.71-9.79-22.61-5.27-46.58,5.16-62.97Z"/>
  <g id="Bouche">
    <path class="cls-2" d="M518.77,655.29c6.83-7.41,16.24-8.04,19.61-8.26,2.59-.17,11.49-.76,19.1,4.65,5.03,3.58,4.44,6.18,10.84,12.9,2.04,2.15,6.83,7.11,13.94,10.84,11.7,6.14,23.04,5.47,27.35,5.16,2.41-.17,10.39-.91,19.61-5.16,9.14-4.22,15-9.82,17.03-11.87,6.08-6.14,4.94-7.85,9.81-11.35,8.42-6.06,17.85-5.28,19.1-5.16,6.29.61,10.69,3.27,12.9,4.65,2.45,1.52,6.35,4,9.29,8.77,3.14,5.1,3.46,10.02,3.61,12.9.55,10.33-3.84,18.21-6.71,23.23-4.49,7.84-9.56,12.55-14.45,17.03-4.17,3.82-13.27,12.02-27.35,18.58-5.2,2.42-25.6,11.38-53.16,9.29-22.24-1.69-37.86-9.71-44.9-13.42-8.68-4.57-19.35-10.33-28.9-22.19-5.2-6.46-14.46-17.95-13.42-33.03.24-3.54.88-11.22,6.71-17.55Z"/>
  </g>
</svg>